<svg width="18" height="18" viewBox="0 0 18 18" fill="none" xmlns="http://www.w3.org/2000/svg">
<path d="M17.3493 14.207L14.2919 11.1497C14.8694 10.066 15.1759 8.85052 15.1758 7.58784C15.1758 5.56109 14.3865 3.65558 12.9534 2.22244C11.5202 0.789293 9.61471 0 7.58788 0C7.58788 0 7.58784 0 7.58781 0C3.40393 0 0.000105469 3.4039 0 7.58788C3.51563e-05 9.61467 0.789328 11.5202 2.22247 12.9533C3.65565 14.3865 5.56109 15.1758 7.58784 15.1758C8.85052 15.1758 10.066 14.8693 11.1497 14.2918L14.207 17.3493C14.6267 17.7689 15.1847 18 15.7782 18C16.3716 18 16.9296 17.7689 17.3492 17.3493C17.7688 16.9296 18 16.3716 18 15.7781C18 15.1846 17.7689 14.6267 17.3493 14.207ZM10.9935 13.1656C10.9737 13.1759 10.9547 13.1879 10.9362 13.2008C9.93445 13.8008 8.78579 14.1211 7.58788 14.1211C3.98556 14.1211 1.05479 11.1903 1.05472 7.58788C1.05479 3.98545 3.98549 1.05469 7.58781 1.05469C7.58784 1.05469 7.58784 1.05469 7.58784 1.05469C7.58791 1.05469 7.58791 1.05469 7.58791 1.05469C11.1903 1.05469 14.1211 3.98545 14.1211 7.58784C14.1211 9.33293 13.4416 10.9735 12.2076 12.2075C11.8369 12.5782 11.4293 12.8984 10.9935 13.1656ZM16.6034 16.6035C16.383 16.8239 16.0899 16.9453 15.7782 16.9453C15.4664 16.9453 15.1732 16.8239 14.9528 16.6035L12.065 13.7157C12.3772 13.4865 12.6744 13.2323 12.9534 12.9533C13.2324 12.6743 13.4866 12.3772 13.7157 12.065L16.6035 14.9528C17.0586 15.4079 17.0585 16.1484 16.6034 16.6035Z" fill="#C3C8D8"/>
</svg>
