<svg width="24" height="24" viewBox="0 0 24 24" fill="none" xmlns="http://www.w3.org/2000/svg">
<path d="M21.8593 3.11189C20.4765 1.72899 18.6378 0.967407 16.682 0.967407C14.9524 0.967407 13.3141 1.56314 12.0019 2.65749C10.6897 1.56314 9.05147 0.967407 7.32183 0.967407C5.36611 0.967407 3.52744 1.72903 2.14453 3.11189C0.761625 4.49475 0 6.33352 0 8.28919C0 10.2449 0.761625 12.0836 2.14453 13.4665C2.14613 13.4682 2.14777 13.4698 2.14941 13.4714L11.5047 22.8266C11.6365 22.9585 11.8154 23.0326 12.0019 23.0326C12.1884 23.0326 12.3673 22.9586 12.4992 22.8266L21.8528 13.473C21.855 13.4708 21.8572 13.4687 21.8594 13.4665C21.8617 13.4642 21.864 13.4618 21.8663 13.4595C24.7137 10.6043 24.7111 5.96353 21.8593 3.11189ZM20.8671 12.4696C20.8664 12.4704 20.8656 12.4712 20.8647 12.4721C20.8643 12.4725 20.8639 12.4728 20.8635 12.4732L12.0019 21.3349L3.1403 12.4733C3.13917 12.4721 3.13795 12.4709 3.13659 12.4696C2.02087 11.3526 1.40648 9.86813 1.40648 8.28924C1.40648 6.70917 2.02177 5.2237 3.13908 4.10644C4.25634 2.98917 5.74181 2.37389 7.32183 2.37389C8.90189 2.37389 10.3874 2.98917 11.5046 4.10644C11.7793 4.38103 12.2245 4.38103 12.4991 4.10644C13.6164 2.98917 15.1019 2.37389 16.6819 2.37389C18.262 2.37389 19.7474 2.98917 20.8647 4.10644C23.1699 6.41142 23.171 10.1632 20.8671 12.4696Z" fill="#C3C8D8"/>
</svg>
