<svg width="232" height="40" viewBox="0 0 232 40" fill="none" xmlns="http://www.w3.org/2000/svg">
<path d="M18.0979 5.8541C18.6966 4.01148 21.3034 4.01148 21.9021 5.8541L24.0413 12.4377C24.309 13.2617 25.0769 13.8197 25.9434 13.8197H32.8658C34.8032 13.8197 35.6088 16.2989 34.0413 17.4377L28.441 21.5066C27.74 22.0159 27.4467 22.9186 27.7145 23.7426L29.8536 30.3262C30.4523 32.1689 28.3433 33.7011 26.7759 32.5623L21.1756 28.4934C20.4746 27.9841 19.5254 27.9841 18.8244 28.4934L13.2241 32.5623C11.6567 33.7011 9.5477 32.1689 10.1464 30.3262L12.2855 23.7426C12.5533 22.9186 12.26 22.0159 11.559 21.5066L5.95867 17.4377C4.39124 16.2989 5.19679 13.8197 7.13424 13.8197H14.0566C14.9231 13.8197 15.691 13.2617 15.9587 12.4377L18.0979 5.8541Z" fill="#FFDF6C"/>
<path d="M66.0979 5.8541C66.6966 4.01148 69.3034 4.01148 69.9021 5.8541L72.0413 12.4377C72.309 13.2617 73.0769 13.8197 73.9434 13.8197H80.8658C82.8032 13.8197 83.6088 16.2989 82.0413 17.4377L76.441 21.5066C75.74 22.0159 75.4467 22.9186 75.7145 23.7426L77.8536 30.3262C78.4523 32.1689 76.3433 33.7011 74.7759 32.5623L69.1756 28.4934C68.4746 27.9841 67.5254 27.9841 66.8244 28.4934L61.2241 32.5623C59.6567 33.7011 57.5477 32.1689 58.1464 30.3262L60.2855 23.7426C60.5533 22.9186 60.26 22.0159 59.559 21.5066L53.9587 17.4377C52.3912 16.2989 53.1968 13.8197 55.1342 13.8197H62.0566C62.9231 13.8197 63.691 13.2617 63.9587 12.4377L66.0979 5.8541Z" fill="#FFDF6C"/>
<path d="M114.098 5.8541C114.697 4.01148 117.303 4.01148 117.902 5.8541L120.041 12.4377C120.309 13.2617 121.077 13.8197 121.943 13.8197H128.866C130.803 13.8197 131.609 16.2989 130.041 17.4377L124.441 21.5066C123.74 22.0159 123.447 22.9186 123.714 23.7426L125.854 30.3262C126.452 32.1689 124.343 33.7011 122.776 32.5623L117.176 28.4934C116.475 27.9841 115.525 27.9841 114.824 28.4934L109.224 32.5623C107.657 33.7011 105.548 32.1689 106.146 30.3262L108.286 23.7426C108.553 22.9186 108.26 22.0159 107.559 21.5066L101.959 17.4377C100.391 16.2989 101.197 13.8197 103.134 13.8197H110.057C110.923 13.8197 111.691 13.2617 111.959 12.4377L114.098 5.8541Z" fill="#FFDF6C"/>
<path d="M162.098 5.8541C162.697 4.01148 165.303 4.01148 165.902 5.8541L168.041 12.4377C168.309 13.2617 169.077 13.8197 169.943 13.8197H176.866C178.803 13.8197 179.609 16.2989 178.041 17.4377L172.441 21.5066C171.74 22.0159 171.447 22.9186 171.714 23.7426L173.854 30.3262C174.452 32.1689 172.343 33.7011 170.776 32.5623L165.176 28.4934C164.475 27.9841 163.525 27.9841 162.824 28.4934L157.224 32.5623C155.657 33.7011 153.548 32.1689 154.146 30.3262L156.286 23.7426C156.553 22.9186 156.26 22.0159 155.559 21.5066L149.959 17.4377C148.391 16.2989 149.197 13.8197 151.134 13.8197H158.057C158.923 13.8197 159.691 13.2617 159.959 12.4377L162.098 5.8541Z" fill="#FFDF6C"/>
<path d="M210.098 5.8541C210.697 4.01148 213.303 4.01148 213.902 5.8541L216.041 12.4377C216.309 13.2617 217.077 13.8197 217.943 13.8197H224.866C226.803 13.8197 227.609 16.2989 226.041 17.4377L220.441 21.5066C219.74 22.0159 219.447 22.9186 219.714 23.7426L221.854 30.3262C222.452 32.1689 220.343 33.7011 218.776 32.5623L213.176 28.4934C212.475 27.9841 211.525 27.9841 210.824 28.4934L205.224 32.5623C203.657 33.7011 201.548 32.1689 202.146 30.3262L204.286 23.7426C204.553 22.9186 204.26 22.0159 203.559 21.5066L197.959 17.4377C196.391 16.2989 197.197 13.8197 199.134 13.8197H206.057C206.923 13.8197 207.691 13.2617 207.959 12.4377L210.098 5.8541Z" fill="#C3C8D8"/>
</svg>
