<svg width="24" height="24" viewBox="0 0 24 24" fill="none" xmlns="http://www.w3.org/2000/svg">
<g clip-path="url(#clip0)">
<path d="M12 0C9.12066 0 6.77817 2.34253 6.77817 5.22183C6.77817 8.10122 9.1207 10.4438 12 10.4438C14.8794 10.4438 17.2218 8.10122 17.2218 5.22188C17.2219 2.34253 14.8794 0 12 0ZM12 9.03745C9.89606 9.03745 8.18442 7.32577 8.18442 5.22183C8.18442 3.11794 9.89611 1.40625 12 1.40625C14.1039 1.40625 15.8156 3.11794 15.8156 5.22183C15.8156 7.32577 14.1039 9.03745 12 9.03745Z" fill="#252E4E"/>
<path d="M12 13.5562C6.62901 13.5562 2.25937 17.9259 2.25937 23.2969C2.25937 23.6852 2.57418 24 2.96249 24H21.0375C21.4258 24 21.7406 23.6852 21.7406 23.2969C21.7406 17.9259 17.371 13.5562 12 13.5562ZM3.69501 22.5937C4.05313 18.3259 7.64118 14.9625 12.0001 14.9625C16.3589 14.9625 19.9469 18.3259 20.305 22.5937H3.69501Z" fill="#252E4E"/>
</g>
<defs>
<clipPath id="clip0">
<rect width="24" height="24" fill="white"/>
</clipPath>
</defs>
</svg>
